<svg xmlns="http://www.w3.org/2000/svg" viewBox="0 0 61.62 81"><defs><style>.cls-1{fill:#ffcece;}</style></defs><g id="Layer_2" data-name="Layer 2"><g id="Layer_1-2" data-name="Layer 1"><path class="cls-1" d="M33.76,0c1.38.22,2.77.36,4.12.67A29.26,29.26,0,0,1,59,17.8c3.4,7.47,3.3,15.17.91,22.9a66.53,66.53,0,0,1-8.78,17.53,131.48,131.48,0,0,1-18.7,21.82l-.15.13c-1.15,1-1.8,1.11-2.91.06-3.18-3-6.43-6-9.43-9.15a86.79,86.79,0,0,1-14-19.38A50.37,50.37,0,0,1,.35,35.26c-2.11-15,5.47-27.09,17.06-32.52A28.86,28.86,0,0,1,27.18.12,3.14,3.14,0,0,0,27.69,0ZM30.82,16.19A14.58,14.58,0,1,0,45.37,30.81,14.59,14.59,0,0,0,30.82,16.19Z"/></g></g></svg>