<svg xmlns="http://www.w3.org/2000/svg" viewBox="0 0 137.64 115.04"><defs><style>.cls-1{fill:#8b2610;}.cls-2{fill:#f7ad97;}.cls-3{fill:#f26851;}.cls-4{fill:#c56e0a;}.cls-5{fill:#7e7e60;}</style></defs><g id="Layer_2" data-name="Layer 2"><g id="Layer_1-2" data-name="Layer 1"><path class="cls-1" d="M71.45,64.24c0-14.4-5.22-24-14.88-29.08v78.67H71.45V64.24Z"/><path class="cls-2" d="M32.71,103.59c-11.32-.13-18.08-5.33-18-13.54.09-7,4.34-12.66,19.07-12.48l22.93.27.13-10.69L33.3,66.86C8.82,66.57.16,77.31,0,90.49-.17,104.75,11.49,114.81,30.09,115c12.22.15,21.13-3.67,26.32-10.38l.18-15.34C52.76,98.72,43.86,103.73,32.71,103.59Z"/><path class="cls-3" d="M34.56,44c14.73,0,22,7.28,22,19.84V35.4c-5.42-2.84-12.22-4.25-20.3-4.25-13.18,0-25.42,3.72-33.95,10.54l6.2,11.16C14.88,47.43,24.8,44,34.56,44Z"/><path class="cls-4" d="M71.45,64.48V0H56.57V35.4C66.23,40.46,71.45,50.08,71.45,64.48Z"/><polygon class="cls-5" points="99.66 66.81 134.23 32.86 116.25 32.86 71.45 73.78 71.45 92.53 88.5 76.72 119.35 115.01 137.64 115.01 99.66 66.81"/></g></g></svg>