<svg xmlns="http://www.w3.org/2000/svg" viewBox="0 0 142.23 118.04"><defs><style>.cls-1{fill:none;stroke:#ffcece;stroke-miterlimit:10;stroke-width:3px;}</style></defs><g id="Layer_2" data-name="Layer 2"><g id="Layer_1-2" data-name="Layer 1"><path class="cls-1" d="M73,65.74c0-14.4-5.22-24-14.88-29.08v78.67H73V65.74Z"/><path class="cls-1" d="M34.21,105.09c-11.32-.13-18.08-5.33-18-13.54.09-7,4.34-12.66,19.07-12.48l22.93.27.13-10.69L34.8,68.36C10.32,68.07,1.66,78.81,1.5,92,1.33,106.25,13,116.31,31.59,116.53c12.22.15,21.13-3.67,26.32-10.38l.18-15.34C54.26,100.22,45.36,105.23,34.21,105.09Z"/><path class="cls-1" d="M36.06,45.52c14.73,0,22,7.28,22,19.84V36.9c-5.42-2.84-12.22-4.25-20.3-4.25-13.18,0-25.42,3.72-33.95,10.54L10,54.35C16.38,48.93,26.3,45.52,36.06,45.52Z"/><path class="cls-1" d="M73,66V1.5H58.07V36.9C67.73,42,73,51.58,73,66Z"/><polygon class="cls-1" points="101.16 68.31 135.73 34.36 117.75 34.36 72.95 75.28 72.95 94.03 90 78.22 120.85 116.51 139.14 116.51 101.16 68.31"/></g></g></svg>