<svg xmlns="http://www.w3.org/2000/svg" viewBox="0 0 90.27 62.56"><defs><style>.cls-1{fill:#ffcece;}</style></defs><g id="Layer_2" data-name="Layer 2"><g id="Layer_1-2" data-name="Layer 1"><path class="cls-1" d="M85.8,62.56H4.49l29.62-31a20.63,20.63,0,0,0,22.07,0C66,41.84,75.86,52.13,85.8,62.56Z"/><path class="cls-1" d="M84.1,0,77.56,5.36Q66.1,14.72,54.66,24.09a14.88,14.88,0,0,1-7.74,3.56,14.28,14.28,0,0,1-11.11-3.43C30.58,20,25.39,15.64,20.18,11.34L7.11.57,6.46,0Z"/><path class="cls-1" d="M0,57.08V3.78L28.66,27.23Z"/><path class="cls-1" d="M61.87,27.24,90.27,3.79V57.07C80.78,47.09,71.36,37.2,61.87,27.24Z"/></g></g></svg>