<svg xmlns="http://www.w3.org/2000/svg" viewBox="0 0 87.86 81.39"><defs><style>.cls-1{fill:#ffcece;}</style></defs><g id="Layer_2" data-name="Layer 2"><g id="Layer_1-2" data-name="Layer 1"><path class="cls-1" d="M17.25,0c.26,0,.51.08.77.1a5,5,0,0,1,4.6,3.15q3.91,9.15,7.89,18.28a5.07,5.07,0,0,1-2.35,6.94l-4.85,2.71C30.23,45.38,41,55.1,56.14,60c.45-1.15.86-2.21,1.27-3.28.25-.66.49-1.32.76-2a4.83,4.83,0,0,1,6.07-2.95c6.25,1.77,12.49,3.58,18.76,5.28,2.54.69,4.19,2.06,4.49,4.75s.71,5.42-.12,8.1c-1.67,5.4-5,9.24-10.51,10.94a18.41,18.41,0,0,1-6.58.41c-10.4-.6-19.88-4.15-28.79-9.32A93.52,93.52,0,0,1,9.74,42,61.71,61.71,0,0,1,1.25,23.19,46.51,46.51,0,0,1,.08,16.68c-.5-4.81,1.33-8.77,4.79-12A16.1,16.1,0,0,1,13.2.37a2.62,2.62,0,0,0,.39-.15Z"/></g></g></svg>